<?xml version="1.0" encoding="utf-8"?>
<!-- Generator: Adobe Illustrator 23.0.1, SVG Export Plug-In . SVG Version: 6.00 Build 0)  -->
<svg version="1.1" id="Layer_1" xmlns="http://www.w3.org/2000/svg" xmlns:xlink="http://www.w3.org/1999/xlink" x="0px" y="0px"
	 viewBox="0 0 1594.9 1594.9" style="enable-background:new 0 0 1594.9 1594.9;" xml:space="preserve">
<style type="text/css">
	.st0{fill:none;}
	.st1{fill:#FFFFFF;}
	.st2{fill:url(#SVGID_1_);}
	.st3{fill:url(#SVGID_2_);}
	.st4{fill:url(#SVGID_3_);}
	.st5{fill:url(#SVGID_4_);}
	.st6{fill:url(#SVGID_5_);}
	.st7{fill:url(#SVGID_6_);}
	.st8{fill:url(#SVGID_7_);}
	.st9{fill:url(#SVGID_8_);}
	.st10{fill:url(#SVGID_9_);}
	.st11{fill:url(#SVGID_10_);}
	.st12{fill:url(#SVGID_11_);}
	.st13{fill:url(#SVGID_12_);}
	.st14{fill:url(#SVGID_13_);}
	.st15{fill:url(#SVGID_14_);}
	.st16{fill:url(#SVGID_15_);}
	.st17{fill:url(#SVGID_16_);}
	.st18{fill:url(#SVGID_17_);}
	.st19{fill:url(#SVGID_18_);}
	.st20{fill:url(#SVGID_19_);}
</style>
<rect class="st0" width="1594.9" height="1594.9"/>
<g>
	<g>
		<g>
			<path class="st1" d="M495.2,1074.7h-22.5v-61.3H366v61.3h-22.5V939.4H366v55.3h106.7v-55.3h22.5V1074.7z"/>
			<path class="st1" d="M764.7,1074.7h-24.9l-17.3-33.3H631l-17.3,33.3h-22.3l73.9-135.3h24.1L764.7,1074.7z M713.3,1024.1
				l-36.4-69.2l-36.4,69.2H713.3z"/>
			<path class="st1" d="M1010.3,1074.7h-12.6l-104.1-94.1c-3.3-3-7.9-8-13.6-15.2c1,8,1.6,17.3,1.6,27.8v81.5h-20.7V939.4h14.2
				l101.2,90.4c4.9,4.4,10,10.1,15.5,17c-1.4-8.4-2.1-18.4-2.1-30.1v-77.3h20.7V1074.7z"/>
			<path class="st1" d="M1251.5,1074.7h-136.3v-9.2l100.1-107.7h-91.5v-18.4h127.7v7.6l-102,108.8h102V1074.7z"/>
		</g>
		<g>
			<path class="st1" d="M577.1,1162.8h-45.4v85.4h-16.5v-85.4h-45.2v-13.4h107.1V1162.8z"/>
			<path class="st1" d="M739.1,1248.2h-96v-98.8h95.2v13.2h-78.7v27.6h48.1v13h-48.1v31.4h79.5V1248.2z"/>
			<path class="st1" d="M916.9,1224.9c0,9.1-1.6,15.2-4.7,18.5c-3.1,3.3-9.2,4.9-18.3,4.9h-55.3c-8.9,0-15-1.6-18.3-4.9
				s-4.9-9.4-4.9-18.5v-52.1c0-9.1,1.6-15.2,4.9-18.5s9.4-4.9,18.3-4.9h55.3c11.2,0,18.2,2.9,20.9,8.6c1.4,3.1,2.1,11.1,2.1,24.1
				l-16.5,3.1v-22.4h-68.6v71.6h68.6v-24.7l16.5,3.4V1224.9z"/>
			<path class="st1" d="M1109.5,1248.2h-16.5v-44.8h-77.9v44.8h-16.5v-98.8h16.5v40.4h77.9v-40.4h16.5V1248.2z"/>
		</g>
	</g>
	<g>
		<g>
			<linearGradient id="SVGID_1_" gradientUnits="userSpaceOnUse" x1="326.262" y1="381.8651" x2="1252.2598" y2="381.8651">
				<stop  offset="0" style="stop-color:#00EFB6"/>
				<stop  offset="1" style="stop-color:#00A4FF"/>
			</linearGradient>
			<path class="st2" d="M1263.8,383.5L1263.8,383.5c0,9.5-7.7,17.2-17.2,17.2H824.4c-6.9,0-12.5-5.6-12.5-12.5v0H648.6v0
				c0,6.9-5.6,12.5-12.5,12.5H506.8c-6.9,0-12.5-5.6-12.5-12.5v-0.1H337.4c-3.4,0-6.2-2.8-6.2-6.2l0,0c0-3.4,2.8-6.2,6.2-6.2h156.9
				v-0.1c0-6.9,5.6-12.5,12.5-12.5h129.2c6.9,0,12.5,5.6,12.5,12.5v0h163.2l0,0c0-5.2,4.2-9.4,9.4-9.4h425.4
				C1256.1,366.3,1263.8,374,1263.8,383.5z"/>
		</g>
		<g>
			<linearGradient id="SVGID_2_" gradientUnits="userSpaceOnUse" x1="326.262" y1="428.0436" x2="1252.2598" y2="428.0436">
				<stop  offset="0" style="stop-color:#00EFB6"/>
				<stop  offset="1" style="stop-color:#00A4FF"/>
			</linearGradient>
			<path class="st3" d="M1263.8,426.4v3.2c0,9.5-7.7,17.2-17.2,17.2H824.4c-6.9,0-12.5-5.6-12.5-12.5l0,0H648.6l0,0
				c0,6.9-5.6,12.5-12.5,12.5H506.8c-6.9,0-12.5-5.6-12.5-12.5v-0.1H337.4c-3.4,0-6.2-2.8-6.2-6.2l0,0c0-3.4,2.8-6.2,6.2-6.2h156.9
				v-0.1c0-6.9,5.6-12.5,12.5-12.5h129.2c6.9,0,12.5,5.6,12.5,12.5v0h163.2v0c0-6.9,5.6-12.5,12.5-12.5h422.2
				C1256.1,409.3,1263.8,417,1263.8,426.4z"/>
		</g>
		<g>
			<linearGradient id="SVGID_3_" gradientUnits="userSpaceOnUse" x1="326.262" y1="474.2235" x2="1252.2598" y2="474.2235">
				<stop  offset="0" style="stop-color:#00EFB6"/>
				<stop  offset="1" style="stop-color:#00A4FF"/>
			</linearGradient>
			<path class="st4" d="M1263.8,472.6v3.2c0,9.5-7.7,17.2-17.2,17.2H824.4c-6.9,0-12.5-5.6-12.5-12.5v0H648.6v0
				c0,6.9-5.6,12.5-12.5,12.5H506.8c-6.9,0-12.5-5.6-12.5-12.5v-0.1H337.4c-3.4,0-6.2-2.8-6.2-6.2l0,0c0-3.4,2.8-6.2,6.2-6.2h156.9
				v-0.1c0-6.9,5.6-12.5,12.5-12.5h129.2c6.9,0,12.5,5.6,12.5,12.5v0h163.2v0c0-6.9,5.6-12.5,12.5-12.5h422.2
				C1256.1,455.4,1263.8,463.1,1263.8,472.6z"/>
		</g>
		<linearGradient id="SVGID_4_" gradientUnits="userSpaceOnUse" x1="326.262" y1="518.7123" x2="1252.2596" y2="518.7123">
			<stop  offset="0" style="stop-color:#00EFB6"/>
			<stop  offset="1" style="stop-color:#00A4FF"/>
		</linearGradient>
		<path class="st5" d="M805.6,514.2h-157v0c0-6.9-5.6-12.5-12.5-12.5H506.8c-6.9,0-12.5,5.6-12.5,12.5v0.1H337.7
			c-3.4,0-6.4,2.6-6.5,6.1c-0.1,3.5,2.7,6.4,6.2,6.4h156.9c0,3.1,0,9.2,13.1,9.2h128.7c11.3,0,12.5-4.8,12.5-9.2h157
			c3.4,0,6.2-2.8,6.2-6.2v0C811.9,517,809.1,514.2,805.6,514.2z"/>
		<linearGradient id="SVGID_5_" gradientUnits="userSpaceOnUse" x1="326.262" y1="566.5806" x2="1252.2598" y2="566.5806">
			<stop  offset="0" style="stop-color:#00EFB6"/>
			<stop  offset="1" style="stop-color:#00A4FF"/>
		</linearGradient>
		<path class="st6" d="M805.6,560.3H337.4c-3.4,0-6.2,2.8-6.2,6.2v0c0,3.4,2.8,6.2,6.2,6.2h468.2c3.4,0,6.2-2.8,6.2-6.2v0
			C811.9,563.1,809.1,560.3,805.6,560.3z"/>
		<linearGradient id="SVGID_6_" gradientUnits="userSpaceOnUse" x1="326.262" y1="612.7889" x2="1252.2598" y2="612.7889">
			<stop  offset="0" style="stop-color:#00EFB6"/>
			<stop  offset="1" style="stop-color:#00A4FF"/>
		</linearGradient>
		<path class="st7" d="M805.6,606.5H337.4c-3.4,0-6.2,2.8-6.2,6.2v0.1c0,3.4,2.8,6.2,6.2,6.2h468.2c3.4,0,6.2-2.8,6.2-6.2v-0.1
			C811.9,609.3,809.1,606.5,805.6,606.5z"/>
		<linearGradient id="SVGID_7_" gradientUnits="userSpaceOnUse" x1="326.262" y1="658.9675" x2="1252.2598" y2="658.9675">
			<stop  offset="0" style="stop-color:#00EFB6"/>
			<stop  offset="1" style="stop-color:#00A4FF"/>
		</linearGradient>
		<path class="st8" d="M805.6,652.7H337.4c-3.4,0-6.2,2.8-6.2,6.2v0.1c0,3.4,2.8,6.2,6.2,6.2h468.2c3.4,0,6.2-2.8,6.2-6.2v-0.1
			C811.9,655.5,809.1,652.7,805.6,652.7z"/>
		<linearGradient id="SVGID_8_" gradientUnits="userSpaceOnUse" x1="326.262" y1="705.1176" x2="1252.2598" y2="705.1176">
			<stop  offset="0" style="stop-color:#00EFB6"/>
			<stop  offset="1" style="stop-color:#00A4FF"/>
		</linearGradient>
		<path class="st9" d="M811.9,705.1c0-3.4-2.8-6.2-6.2-6.2h-157l1.5-0.1c0-6.9-5.6-12.5-12.5-12.5H506.8c-6.9,0-12.5,5.6-12.5,12.5
			v0.1H337.4c-3.4,0-6.2,2.8-6.2,6.2v0.1c0,3.4,2.8,6.2,6.2,6.2h156.9c0,6.9,5.6,12.5,12.5,12.5h130.8c6.9,0,12.5-5.6,12.5-12.5
			h155.6C809.1,711.4,811.9,708.6,811.9,705.1L811.9,705.1z"/>
		<linearGradient id="SVGID_9_" gradientUnits="userSpaceOnUse" x1="326.262" y1="751.2961" x2="1252.2598" y2="751.2961">
			<stop  offset="0" style="stop-color:#00EFB6"/>
			<stop  offset="1" style="stop-color:#00A4FF"/>
		</linearGradient>
		<path class="st10" d="M811.9,751.4L811.9,751.4c0-3.5-2.8-6.3-6.2-6.3h-157l1.5-0.1c0-6.9-5.6-12.5-12.5-12.5H506.8
			c-6.9,0-12.5,5.6-12.5,12.5v0.1H337.4c-3.4,0-6.2,2.8-6.2,6.2v0.1c0,3.4,2.8,6.2,6.2,6.2h156.9v0c0,6.9,5.6,12.5,12.5,12.5h130.8
			c6.9,0,12.5-5.6,12.5-12.5l-1.5,0h157C809.1,757.6,811.9,754.8,811.9,751.4z"/>
		<linearGradient id="SVGID_10_" gradientUnits="userSpaceOnUse" x1="326.262" y1="797.4747" x2="1252.2598" y2="797.4747">
			<stop  offset="0" style="stop-color:#00EFB6"/>
			<stop  offset="1" style="stop-color:#00A4FF"/>
		</linearGradient>
		<path class="st11" d="M811.9,797.5c0-3.4-2.8-6.2-6.2-6.2h-157l1.5-0.1c0-6.9-5.6-12.5-12.5-12.5H506.8c-6.9,0-12.5,5.6-12.5,12.5
			v0.1H337.4c-3.4,0-6.2,2.8-6.2,6.2v0.1c0,3.4,2.8,6.2,6.2,6.2h156.9c0,6.9,5.6,12.5,12.5,12.5h130.8c6.9,0,12.5-5.6,12.5-12.5
			h155.6C809.1,803.8,811.9,801,811.9,797.5L811.9,797.5z"/>
		<linearGradient id="SVGID_11_" gradientUnits="userSpaceOnUse" x1="326.262" y1="843.6533" x2="1252.2598" y2="843.6533">
			<stop  offset="0" style="stop-color:#00EFB6"/>
			<stop  offset="1" style="stop-color:#00A4FF"/>
		</linearGradient>
		<path class="st12" d="M811.9,843.7c0-3.4-2.8-6.2-6.2-6.2h-157l1.5-0.1c0-6.9-5.6-12.5-12.5-12.5H506.8c-6.9,0-12.5,5.6-12.5,12.5
			v0.1H337.4c-3.4,0-6.2,2.8-6.2,6.2v0.1c0,3.4,2.8,6.2,6.2,6.2h156.9c0,6.9,5.6,12.5,12.5,12.5h130.8c6.9,0,12.5-5.6,12.5-12.5
			h155.6C809.1,850,811.9,847.2,811.9,843.7L811.9,843.7z"/>
		<g>
			<linearGradient id="SVGID_12_" gradientUnits="userSpaceOnUse" x1="326.262" y1="520.402" x2="1252.2598" y2="520.402">
				<stop  offset="0" style="stop-color:#00EFB6"/>
				<stop  offset="1" style="stop-color:#00A4FF"/>
			</linearGradient>
			<path class="st13" d="M1099.3,501.6h-63.8h-0.8h-60c-10.4,0-18.8,8.4-18.8,18.8v0c0,10.4,8.4,18.8,18.8,18.8h60h0.8h63.8
				c10.4,0,18.8-8.4,18.8-18.8v0C1118.1,510,1109.7,501.6,1099.3,501.6z"/>
			<linearGradient id="SVGID_13_" gradientUnits="userSpaceOnUse" x1="326.262" y1="566.5806" x2="1252.2598" y2="566.5806">
				<stop  offset="0" style="stop-color:#00EFB6"/>
				<stop  offset="1" style="stop-color:#00A4FF"/>
			</linearGradient>
			<path class="st14" d="M1099.3,547.8h-63.8h-0.8h-60c-10.4,0-18.8,8.4-18.8,18.8v0c0,10.4,8.4,18.8,18.8,18.8h60h0.8h63.8
				c10.4,0,18.8-8.4,18.8-18.8v0C1118.1,556.2,1109.7,547.8,1099.3,547.8z"/>
			<linearGradient id="SVGID_14_" gradientUnits="userSpaceOnUse" x1="326.262" y1="612.7591" x2="1252.2598" y2="612.7591">
				<stop  offset="0" style="stop-color:#00EFB6"/>
				<stop  offset="1" style="stop-color:#00A4FF"/>
			</linearGradient>
			<path class="st15" d="M1099.3,594h-63.8h-0.8h-60c-10.4,0-18.8,8.4-18.8,18.8v0c0,10.4,8.4,18.8,18.8,18.8h60h0.8h63.8
				c10.4,0,18.8-8.4,18.8-18.8v0C1118.1,602.4,1109.7,594,1099.3,594z"/>
			<linearGradient id="SVGID_15_" gradientUnits="userSpaceOnUse" x1="326.262" y1="658.9376" x2="1252.2598" y2="658.9376">
				<stop  offset="0" style="stop-color:#00EFB6"/>
				<stop  offset="1" style="stop-color:#00A4FF"/>
			</linearGradient>
			<path class="st16" d="M1099.3,640.1h-63.8h-0.8h-60c-10.4,0-18.8,8.4-18.8,18.8v0c0,10.4,8.4,18.8,18.8,18.8h60h0.8h63.8
				c10.4,0,18.8-8.4,18.8-18.8v0C1118.1,648.6,1109.7,640.1,1099.3,640.1z"/>
			<linearGradient id="SVGID_16_" gradientUnits="userSpaceOnUse" x1="326.262" y1="705.1176" x2="1252.2598" y2="705.1176">
				<stop  offset="0" style="stop-color:#00EFB6"/>
				<stop  offset="1" style="stop-color:#00A4FF"/>
			</linearGradient>
			<path class="st17" d="M1099.3,686.3h-63.8h-0.8h-60c-10.4,0-18.8,8.4-18.8,18.8s8.4,18.8,18.8,18.8h60h0.8h63.8
				c10.4,0,18.8-8.4,18.8-18.8S1109.7,686.3,1099.3,686.3z"/>
			<linearGradient id="SVGID_17_" gradientUnits="userSpaceOnUse" x1="326.262" y1="751.2961" x2="1252.2598" y2="751.2961">
				<stop  offset="0" style="stop-color:#00EFB6"/>
				<stop  offset="1" style="stop-color:#00A4FF"/>
			</linearGradient>
			<path class="st18" d="M1099.3,732.5h-63.8h-0.8h-60c-10.4,0-18.8,8.4-18.8,18.8v0c0,10.4,8.4,18.8,18.8,18.8h60h0.8h63.8
				c10.4,0,18.8-8.4,18.8-18.8v0C1118.1,740.9,1109.7,732.5,1099.3,732.5z"/>
			<linearGradient id="SVGID_18_" gradientUnits="userSpaceOnUse" x1="326.262" y1="797.4747" x2="1252.2598" y2="797.4747">
				<stop  offset="0" style="stop-color:#00EFB6"/>
				<stop  offset="1" style="stop-color:#00A4FF"/>
			</linearGradient>
			<path class="st19" d="M1099.3,778.7h-63.8h-0.8h-60c-10.4,0-18.8,8.4-18.8,18.8v0c0,10.4,8.4,18.8,18.8,18.8h60h0.8h63.8
				c10.4,0,18.8-8.4,18.8-18.8v0C1118.1,787.1,1109.7,778.7,1099.3,778.7z"/>
			<linearGradient id="SVGID_19_" gradientUnits="userSpaceOnUse" x1="326.262" y1="843.6533" x2="1252.2598" y2="843.6533">
				<stop  offset="0" style="stop-color:#00EFB6"/>
				<stop  offset="1" style="stop-color:#00A4FF"/>
			</linearGradient>
			<path class="st20" d="M1099.3,824.9h-63.8h-0.8h-60c-10.4,0-18.8,8.4-18.8,18.8v0c0,10.4,8.4,18.8,18.8,18.8h60h0.8h63.8
				c10.4,0,18.8-8.4,18.8-18.8v0C1118.1,833.3,1109.7,824.9,1099.3,824.9z"/>
		</g>
	</g>
</g>
<g>
</g>
<g>
</g>
<g>
</g>
<g>
</g>
<g>
</g>
</svg>
